<svg width="112" height="24" viewBox="0 0 112 24" fill="none" xmlns="http://www.w3.org/2000/svg">
<path d="M2.71765 12.7059C4.21856 12.7059 5.43529 11.4892 5.43529 9.98824C5.43529 8.48732 4.21856 7.27059 2.71765 7.27059C1.21673 7.27059 0 8.48732 0 9.98824C0 11.4892 1.21673 12.7059 2.71765 12.7059Z" fill="#1E1E1E"/>
<path d="M15.0354 6.91765C16.9456 6.91765 18.4942 5.36908 18.4942 3.45882C18.4942 1.54857 16.9456 0 15.0354 0C13.1251 0 11.5765 1.54857 11.5765 3.45882C11.5765 5.36908 13.1251 6.91765 15.0354 6.91765Z" fill="#1E1E1E"/>
<path d="M6.49407 6.03529C7.15681 6.03529 7.69407 5.49803 7.69407 4.83529C7.69407 4.17255 7.15681 3.63529 6.49407 3.63529C5.83133 3.63529 5.29407 4.17255 5.29407 4.83529C5.29407 5.49803 5.83133 6.03529 6.49407 6.03529Z" fill="#1E1E1E"/>
<path d="M22.3765 7.7294C22.5882 8.50587 22.1647 9.21176 21.4941 9.45881C21.2118 9.59999 20.8235 9.70587 20.4353 9.91764C18.3177 10.9059 16.5882 13.4823 16.7647 15.4588C16.8706 16.7294 17.7529 17.3294 18 17.9294C18 17.9647 18.0353 17.9647 18.0353 18C18.2118 18.3529 18.3177 18.7412 18.3177 19.1647C18.3177 20.7176 16.9765 21.9176 15.3882 21.7412C14.1882 21.6 13.2 20.5765 13.1294 19.3412C13.0941 18.6353 13.3412 17.9647 13.7647 17.4706C13.9059 17.1882 14.0471 16.8706 14.1177 16.447C14.5412 13.9059 11.8235 10.7647 10.2706 11.047C9.91765 11.1176 9.84707 11.3294 8.08236 14.4353C6.6706 16.9059 6.60001 16.9765 6.35295 17.5412C6.00001 18.4235 5.82354 19.0235 5.68236 19.447C5.68236 20.8588 4.51765 21.9882 3.10589 21.9882C1.65883 21.9882 0.529419 20.8235 0.529419 19.4118C0.529419 18 1.65883 16.8353 3.0706 16.8353C3.6706 16.7294 4.58824 16.8353 5.64707 16.2353C5.64707 16.2353 8.32942 14.7529 8.36471 10.6588C8.36471 10.4471 8.36471 10.2353 8.25883 10.0235C8.11765 9.70587 7.8706 9.67058 7.72942 9.31764C7.72942 9.31764 7.65883 9.10587 7.65883 8.85882C7.65883 8.04705 8.29413 7.41176 9.10589 7.41176C9.77648 7.41176 10.3765 7.87058 10.5177 8.54117C10.5529 8.75293 10.6235 8.9294 10.7647 9.10587C10.8353 9.24705 10.9412 9.35293 11.0471 9.5294C11.8941 10.7647 12.1412 10.5529 13.3412 11.9647C14.9294 13.8353 15.0706 14.8235 15.6353 14.7882C16.1294 14.7529 16.0941 13.9059 17.2235 11.8588C17.9294 10.5882 17.9294 10.9059 18.9529 9.10587C19.2 8.68234 19.3765 8.3647 19.5177 8.11764C19.5882 8.01176 19.5882 7.90587 19.6235 7.79999C19.8 7.05882 20.5412 6.5294 21.3882 6.74117C21.8471 6.84705 22.2353 7.23529 22.3765 7.7294Z" fill="#1E1E1E"/>
<path d="M10.6589 15.5647C11.0877 15.5647 11.4354 15.2171 11.4354 14.7882C11.4354 14.3594 11.0877 14.0118 10.6589 14.0118C10.2301 14.0118 9.88245 14.3594 9.88245 14.7882C9.88245 15.2171 10.2301 15.5647 10.6589 15.5647Z" fill="#1E1E1E"/>
<path d="M9.49412 24C10.5272 24 11.3647 23.1625 11.3647 22.1294C11.3647 21.0963 10.5272 20.2588 9.49412 20.2588C8.46103 20.2588 7.62354 21.0963 7.62354 22.1294C7.62354 23.1625 8.46103 24 9.49412 24Z" fill="#1E1E1E"/>
<path d="M22.9059 16.0941C24.2704 16.0941 25.3765 14.988 25.3765 13.6235C25.3765 12.2591 24.2704 11.1529 22.9059 11.1529C21.5414 11.1529 20.4353 12.2591 20.4353 13.6235C20.4353 14.988 21.5414 16.0941 22.9059 16.0941Z" fill="#1E1E1E"/>
<path d="M14.6471 10.8353C15.1344 10.8353 15.5295 10.4403 15.5295 9.95294C15.5295 9.46563 15.1344 9.07059 14.6471 9.07059C14.1598 9.07059 13.7648 9.46563 13.7648 9.95294C13.7648 10.4403 14.1598 10.8353 14.6471 10.8353Z" fill="#1E1E1E"/>
<path d="M39.105 15.5551C38.8664 15.5551 38.6278 15.3165 38.6278 15.0779V11.9761C38.6278 10.4968 37.4348 9.35156 36.0033 9.35156C34.524 9.35156 33.331 10.5445 33.331 11.9761V15.0779C33.331 15.3165 33.1401 15.5551 32.8538 15.5551C32.5675 15.5551 32.3766 15.3165 32.3766 15.0779V11.9761C32.3766 10.0196 33.999 8.39718 35.9555 8.39718C37.912 8.39718 39.5345 10.0196 39.5345 11.9761V15.0779C39.5822 15.3165 39.3436 15.5551 39.105 15.5551Z" fill="#1E1E1E"/>
<path d="M47.3128 11.9761C47.3128 12.2147 47.0742 12.4533 46.8356 12.4533H42.9226C42.6841 12.4533 42.4932 12.2624 42.4932 12.0238C42.4932 11.7852 42.6841 11.5944 42.9226 11.5944H46.3584C46.1676 10.3059 45.1177 9.35156 43.7816 9.35156C42.3023 9.35156 41.157 10.5445 41.157 12.0238C41.157 13.4554 42.3023 14.6484 43.7816 14.6484C44.736 14.6484 45.5949 14.1235 46.0721 13.3123C46.1676 13.1214 46.4539 13.0259 46.6925 13.1691C46.9311 13.2645 46.9788 13.5509 46.8833 13.7895C46.263 14.887 45.07 15.6028 43.8293 15.6028C41.8728 15.6028 40.2504 13.9803 40.2504 12.0238C40.2504 10.0673 41.8251 8.44489 43.8293 8.44489C45.7381 8.39717 47.3128 10.0196 47.3128 11.9761Z" fill="#1E1E1E"/>
<path d="M55.0911 8.87438V11.9761C55.0911 13.9326 53.4687 15.5551 51.5122 15.5551C49.5557 15.5551 47.9332 13.9326 47.9332 11.9761V8.87438C47.9332 8.63578 48.1718 8.39719 48.4104 8.39719C48.649 8.39719 48.8876 8.63578 48.8876 8.87438V11.9761C48.8876 13.4554 50.0806 14.6484 51.5122 14.6484C52.9915 14.6484 54.1845 13.4554 54.1845 11.9761V8.87438C54.1845 8.63578 54.4231 8.39719 54.6616 8.39719C54.9002 8.39719 55.0911 8.58806 55.0911 8.87438Z" fill="#1E1E1E"/>
<path d="M56.1886 15.5551C55.95 15.5551 55.7114 15.3165 55.7114 15.0779V11.9761C55.7114 10.0196 57.3339 8.39719 59.2904 8.39719C60.3402 8.39719 61.2946 8.82666 61.9627 9.59017C62.1535 9.78105 62.1058 10.0674 61.9149 10.2582C61.7241 10.4491 61.4377 10.4014 61.2469 10.2105C60.7697 9.63789 60.0062 9.30385 59.2427 9.30385C57.7634 9.30385 56.5704 10.4968 56.5704 11.9284V15.0302C56.6658 15.3165 56.4749 15.5551 56.1886 15.5551Z" fill="#1E1E1E"/>
<path d="M65.9234 8.39719C67.8799 8.39719 69.5024 10.0196 69.5024 11.9761C69.5024 13.9326 67.8799 15.5551 65.9234 15.5551C63.9669 15.5551 62.3445 13.9326 62.3445 11.9761C62.3445 10.0196 63.9669 8.39719 65.9234 8.39719ZM68.5957 11.9761C68.5957 10.4968 67.4027 9.35157 65.9234 9.35157C64.4441 9.35157 63.2989 10.5446 63.2989 11.9761C63.2989 13.4554 64.4918 14.6484 65.9234 14.6484C67.4027 14.6007 68.5957 13.4554 68.5957 11.9761Z" fill="#1E1E1E"/>
<path d="M78.7122 15.4119V15.9368H73.6062V8.06313H74.1311V15.4119H78.7122Z" fill="#1E1E1E"/>
<path d="M82.7682 7.9677C83.3408 7.9677 83.818 8.06314 84.3429 8.30174C84.8201 8.49262 85.2496 8.77893 85.6313 9.16069C86.0131 9.54244 86.2994 9.92419 86.4903 10.4491C86.6812 10.9263 86.8243 11.4512 86.8243 12.0238C86.8243 12.5965 86.7289 13.0737 86.4903 13.5986C86.2994 14.0758 86.0131 14.5052 85.6313 14.887C85.2496 15.2688 84.8678 15.5551 84.3429 15.746C83.8657 15.9368 83.3408 16.08 82.7682 16.08C82.1955 16.08 81.6706 15.9845 81.1934 15.746C80.7162 15.5551 80.2868 15.2688 79.905 14.887C79.5233 14.5052 79.2369 14.0758 79.0461 13.5986C78.8552 13.1214 78.712 12.5965 78.712 12.0238C78.712 11.4512 78.8075 10.9263 79.0461 10.4491C79.2369 9.97191 79.5233 9.54244 79.905 9.16069C80.2868 8.77893 80.6685 8.49262 81.1934 8.30174C81.6706 8.06314 82.1955 7.9677 82.7682 7.9677ZM86.2517 11.9761C86.2517 11.4989 86.1562 11.0217 85.9654 10.5923C85.7745 10.1628 85.5359 9.78104 85.2019 9.49472C84.8678 9.16069 84.5338 8.92209 84.1043 8.73121C83.6748 8.54034 83.2454 8.4449 82.7682 8.4449C82.291 8.4449 81.8138 8.54034 81.3843 8.73121C80.9548 8.92209 80.5731 9.16069 80.2868 9.49472C80.0005 9.82876 79.7141 10.1628 79.5233 10.5923C79.3324 11.0217 79.2369 11.4512 79.2369 11.9761C79.2369 12.4533 79.3324 12.8828 79.5233 13.3123C79.7141 13.7417 79.9527 14.1235 80.2868 14.4098C80.6208 14.7438 80.9548 14.9824 81.3843 15.1733C81.8138 15.3642 82.2433 15.4596 82.7682 15.4596C83.2454 15.4596 83.6748 15.3642 84.1043 15.1733C84.5338 14.9824 84.9155 14.7438 85.2019 14.4098C85.5359 14.0758 85.7745 13.7417 85.9654 13.3123C86.1562 12.9305 86.2517 12.4533 86.2517 11.9761Z" fill="#1E1E1E"/>
<path d="M95.9865 11.1172C95.9865 11.1172 95.9865 11.1649 95.9865 11.2603C95.9865 11.3558 95.9865 11.3558 95.9865 11.4035C95.9865 11.4512 95.9865 11.5467 95.9865 11.5944C95.9865 11.6898 95.9865 11.7375 95.9865 11.7852C95.9865 12.0716 95.9387 12.4056 95.891 12.7396C95.8433 13.0737 95.7479 13.36 95.6524 13.5986C95.4615 13.9803 95.2707 14.3144 94.9844 14.6007C94.698 14.887 94.4117 15.1256 94.1254 15.3642C93.7914 15.5551 93.4573 15.746 93.0756 15.8414C92.6938 15.9368 92.3598 16.0323 91.978 16.0323C91.4531 16.0323 90.9282 15.9368 90.451 15.6982C89.9738 15.5074 89.5444 15.1733 89.2103 14.8393C88.8286 14.4575 88.5422 14.0281 88.3514 13.5509C88.1605 13.0737 88.0173 12.5488 88.0173 12.0238C88.0173 11.4512 88.1128 10.974 88.3514 10.4491C88.5422 9.97191 88.8286 9.54244 89.2103 9.16069C89.5921 8.77893 89.9738 8.49262 90.4987 8.30174C90.9759 8.11086 91.5008 7.9677 92.0258 7.9677C92.3121 7.9677 92.5984 8.01542 92.8847 8.06314C93.171 8.11086 93.4573 8.2063 93.7914 8.34946L93.6005 8.87437C93.3142 8.73121 93.0756 8.63578 92.7893 8.58806C92.5507 8.54034 92.3121 8.49262 92.0735 8.49262C91.5963 8.49262 91.1191 8.58805 90.7373 8.77893C90.3079 8.96981 89.9738 9.25613 89.6398 9.54244C89.3058 9.87648 89.0672 10.2582 88.924 10.64C88.7331 11.0695 88.6377 11.4989 88.6377 11.9284C88.6377 12.4056 88.7331 12.8828 88.924 13.3123C89.1149 13.7417 89.3535 14.1235 89.6875 14.4098C90.0215 14.7438 90.3556 14.9824 90.7851 15.1733C91.2145 15.3642 91.644 15.4596 92.0735 15.4596C92.4075 15.4596 92.6938 15.4119 93.0279 15.3165C93.3619 15.221 93.6482 15.0779 93.9345 14.887C94.2208 14.6961 94.4594 14.5052 94.698 14.2189C94.9366 13.9803 95.1275 13.6463 95.2707 13.36C95.3661 13.1214 95.4138 12.8828 95.5093 12.5965C95.557 12.3102 95.6047 12.0238 95.6047 11.7852C95.6047 11.7375 95.6047 11.7375 95.6047 11.6898C95.6047 11.6421 95.6047 11.6421 95.6047 11.5944H92.6938V11.0695H95.9865V11.1172Z" fill="#1E1E1E"/>
<path d="M97.7522 8.06313V15.9368H97.1796V8.06313H97.7522Z" fill="#1E1E1E"/>
<path d="M105.578 14.9824C105.196 15.3165 104.767 15.5551 104.29 15.7459C103.813 15.9368 103.335 16.0322 102.858 16.0322C102.286 16.0322 101.761 15.9368 101.283 15.6982C100.806 15.5073 100.377 15.1733 99.995 14.8393C99.6132 14.4575 99.3269 14.028 99.136 13.5508C98.9452 13.0736 98.802 12.5487 98.802 11.9761C98.802 11.4035 98.8974 10.8786 99.136 10.4014C99.3269 9.92418 99.6132 9.4947 99.995 9.11295C100.377 8.7312 100.758 8.44488 101.283 8.254C101.761 8.06312 102.286 7.91997 102.858 7.91997C103.288 7.91997 103.717 8.01541 104.147 8.15856C104.576 8.30172 104.958 8.54032 105.34 8.77891L104.91 9.11295C104.624 8.92207 104.29 8.7312 103.908 8.63576C103.574 8.54032 103.192 8.44488 102.81 8.44488C102.333 8.44488 101.856 8.54032 101.427 8.73119C100.997 8.92207 100.615 9.16067 100.329 9.4947C99.995 9.82874 99.7564 10.1628 99.5655 10.5922C99.3746 11.0217 99.2792 11.4512 99.2792 11.9761C99.2792 12.4533 99.3746 12.8828 99.5655 13.3122C99.7564 13.7417 99.995 14.1235 100.329 14.4098C100.663 14.7438 100.997 14.9824 101.427 15.1733C101.856 15.3642 102.286 15.4596 102.81 15.4596C103.24 15.4596 103.669 15.3642 104.051 15.221C104.433 15.0779 104.815 14.8393 105.196 14.553L105.578 14.9824Z" fill="#1E1E1E"/>
<path d="M111.972 13.7894C111.972 14.1712 111.877 14.4575 111.734 14.7438C111.591 15.0301 111.352 15.2687 111.114 15.4596C110.827 15.6505 110.541 15.7937 110.207 15.8891C109.873 15.9845 109.491 16.0322 109.062 16.0322C108.871 16.0322 108.728 16.0322 108.489 15.9845C108.298 15.9845 108.06 15.9368 107.869 15.8891C107.678 15.8414 107.439 15.7937 107.248 15.7459C107.057 15.6982 106.819 15.6028 106.628 15.5551L106.819 15.1256L107.153 15.1733C107.248 15.221 107.344 15.221 107.487 15.2687C107.63 15.3165 107.773 15.3165 107.916 15.3642C108.06 15.4119 108.203 15.4119 108.346 15.4596C108.489 15.4596 108.632 15.5073 108.728 15.5073H109.252C109.539 15.5073 109.777 15.4596 110.064 15.3642C110.302 15.2687 110.541 15.1733 110.732 15.0301C110.923 14.887 111.066 14.6961 111.209 14.4575C111.304 14.2189 111.4 13.9803 111.4 13.694C111.4 13.5508 111.352 13.4077 111.304 13.2645C111.257 13.1214 111.161 12.9782 111.114 12.8828C110.97 12.7396 110.875 12.5965 110.732 12.501C110.589 12.4056 110.445 12.3101 110.255 12.2624C110.111 12.2147 109.921 12.167 109.777 12.167C109.587 12.167 109.443 12.1193 109.252 12.1193C108.966 12.1193 108.68 12.0715 108.441 12.0238C108.155 11.9761 107.916 11.8807 107.63 11.7375C107.344 11.5944 107.105 11.3558 106.914 11.0694C106.723 10.7831 106.628 10.4491 106.628 10.0673C106.628 9.54242 106.819 9.11295 107.201 8.73119C107.582 8.34944 108.107 8.11084 108.728 7.96769C108.823 7.96769 108.966 7.91997 109.157 7.91997C109.348 7.91997 109.539 7.91997 109.825 7.91997C109.968 7.91997 110.111 7.91997 110.255 7.96769C110.398 7.96769 110.589 8.0154 110.78 8.06312C110.97 8.11084 111.114 8.15856 111.304 8.20628C111.448 8.254 111.638 8.30172 111.734 8.34944L111.543 8.82664C111.352 8.7312 111.161 8.68348 111.018 8.63576C110.827 8.58804 110.684 8.54032 110.541 8.54032C110.398 8.4926 110.255 8.4926 110.064 8.4926C109.921 8.4926 109.73 8.4926 109.587 8.4926C109.3 8.4926 109.062 8.54032 108.775 8.58804C108.489 8.63576 108.25 8.7312 108.012 8.87435C107.773 9.01751 107.582 9.16067 107.439 9.39927C107.296 9.59014 107.201 9.82874 107.201 10.1151C107.201 10.3059 107.248 10.4968 107.391 10.7354C107.535 10.974 107.678 11.1649 107.869 11.2603C108.107 11.4035 108.346 11.4989 108.584 11.5466C108.823 11.5944 109.062 11.5944 109.3 11.6421C109.587 11.6421 109.873 11.6898 110.159 11.7375C110.445 11.7852 110.78 11.9284 111.018 12.0715C111.304 12.2624 111.543 12.501 111.686 12.8351C111.925 13.1214 111.972 13.4554 111.972 13.7894Z" fill="#1E1E1E"/>
</svg>
